inDegrees=no
num_controls=7
num_derivatives=13
num_iterations=131
num_multipliers=7
num_parameters=0
num_slacks=7
num_states=26
objective=0.476881
objective_accelerations=0.044232
objective_balance=0.003634
objective_effort=0.040524
objective_height=0.382825
objective_ligament=0.005665
solver_duration=1837.860481
status=Solve_Succeeded
success=true
DataType=double
version=3
OpenSimVersion=4.5
endheader
time	/jointset/ground_pelvis/pelvis_tilt/value	/jointset/ground_pelvis/pelvis_tx/value	/jointset/ground_pelvis/pelvis_ty/value	/jointset/hip_l/hip_flexion_l/value	/jointset/hip_l/hip_adduction_l/value	/jointset/hip_l/hip_rotation_l/value	/jointset/back/lumbar_extension/value	/jointset/patellofemoral_l/patellar_flexion_l/value	/jointset/knee_l/knee_flexion_l/value	/jointset/knee_l/knee_adduction_l/value	/jointset/knee_l/knee_rotation_l/value	/jointset/ankle_l/ankle_angle_l/value	/jointset/subtalar_l/subtalar_angle_l/value	/jointset/ground_pelvis/pelvis_tilt/speed	/jointset/ground_pelvis/pelvis_tx/speed	/jointset/ground_pelvis/pelvis_ty/speed	/jointset/hip_l/hip_flexion_l/speed	/jointset/hip_l/hip_adduction_l/speed	/jointset/hip_l/hip_rotation_l/speed	/jointset/back/lumbar_extension/speed	/jointset/patellofemoral_l/patellar_flexion_l/speed	/jointset/knee_l/knee_flexion_l/speed	/jointset/knee_l/knee_adduction_l/speed	/jointset/knee_l/knee_rotation_l/speed	/jointset/ankle_l/ankle_angle_l/speed	/jointset/subtalar_l/subtalar_angle_l/speed	/forceset/tau_hip_flexion_l	/forceset/tau_hip_adduction_l	/forceset/tau_hip_rotation_l	/forceset/tau_knee_flexion_l	/forceset/tau_ankle_angle_l	/forceset/tau_subtalar_angle_l	/forceset/tau_lumbar_extension	lambda_cid13_p0	lambda_cid13_p1	lambda_cid13_p2	lambda_cid13_p3	lambda_cid13_p4	lambda_cid13_p5	lambda_cid14_p0	/jointset/ground_pelvis/pelvis_tilt/accel	/jointset/ground_pelvis/pelvis_tx/accel	/jointset/ground_pelvis/pelvis_ty/accel	/jointset/hip_l/hip_flexion_l/accel	/jointset/hip_l/hip_adduction_l/accel	/jointset/hip_l/hip_rotation_l/accel	/jointset/back/lumbar_extension/accel	/jointset/patellofemoral_l/patellar_flexion_l/accel	/jointset/knee_l/knee_flexion_l/accel	/jointset/knee_l/knee_adduction_l/accel	/jointset/knee_l/knee_rotation_l/accel	/jointset/ankle_l/ankle_angle_l/accel	/jointset/subtalar_l/subtalar_angle_l/accel	gamma_cid13_p0	gamma_cid13_p1	gamma_cid13_p2	gamma_cid13_p3	gamma_cid13_p4	gamma_cid13_p5	gamma_cid14_p0
0.5	-0.09488154101486768	-0.04178728077282922	0.8064879190161347	0.9314834864522944	-0.3299021995996602	-0.07789313576279459	-0.7909292071286307	0.92208026464616	0.9220802646461306	-0.1040272599508078	-0.174319774065367	0.1495759851074416	0.0132541821280116	-0.1278936224312997	-0.1587713975004391	-0.4164916029195934	1.598268168570402	-0.02995062058811854	0.5652802992335259	-0.8374161010881911	1.779932187702631	1.779932187702681	0.1473236167276622	0.000533989621431132	0.4306835857019965	0.1140271814399937	-0.2719745634770345	0.02067848721634042	-0.004629456796812746	-0.2473235300468821	0.08431813531116825	0.04619081007325125	0.3281528366576397	-16.99647654011818	-18.74174612756687	4.426374600296406	-8.99696679074834	-701.7788983745909	-75.67612638829392	-9.719327250932114	0.2871308152835071	0.6698011920216613	-0.190311622374248	-1.518230024841567	0.330722005286275	-0.5149447755350606	1.907740796204272	-1.436300205474925	-1.436300205474913	-0.2223613614182246	-0.009923479359079215	-0.2769082177606461	0.3344723980712324	-2.530342536257548e-07	-1.563383079556165e-07	1.510187031317698e-06	1.414127976973682e-07	-2.795171212579101e-07	-9.161614732830532e-08	-2.159956073303387e-07
0.51	-0.09614592310667165	-0.04334147163828878	0.802314420271147	0.9473878352578005	-0.3301860019780669	-0.07226520033753567	-0.7992070830771464	0.9398049966982781	0.9398049966982673	-0.1025676994658077	-0.1743148213396123	0.1538679404493351	0.01440989007828107	-0.124962140648921	-0.1520648187731846	-0.4181123858151007	1.582378715529357	-0.02681853086337452	0.560240996330843	-0.8180693815196799	1.764760838112123	1.764760838112122	0.1445843468548042	0.0004549445027748971	0.4276381865883794	0.1170861770387076	-0.278232111789753	0.0210222647766441	-0.004773499018204934	-0.2509556309427174	0.08329861289383558	0.04622486649905186	0.3344459996436488	-17.58840392344565	-18.59323743749902	4.334554688886069	-8.780406139028218	-706.3744879325392	-75.48823166718856	-8.997002169889019	0.2992316346243584	0.6714082213226102	-0.1336516019113223	-1.657765605086304	0.3029461803725209	-0.5084884072014659	1.961593601643504	-1.59551778432829	-1.595517784336017	-0.3003239341405832	-0.006841497049750405	-0.3287479839966454	0.287223430889636	-2.441733708454123e-07	-1.531611688855336e-07	1.473834567615159e-06	1.369544428755523e-07	-2.66378018991635e-07	-6.343272771929376e-08	-2.119094483884037e-07
0.52	-0.09738037542567557	-0.04482853231482703	0.7981275757014497	0.9631265970006226	-0.3304387847143652	-0.06668967101321657	-0.8072888006170841	0.9573704221647928	0.9573704221648033	-0.1011356545063225	-0.1743106483588297	0.1581273633549253	0.01559531004256131	-0.1219076678701496	-0.1453453597161779	-0.4191607678614971	1.565150756034295	-0.02374669216646915	0.5547990790454974	-0.7981844193723944	1.748070870582031	1.748070870581978	0.1418205116251067	0.0003780406268839461	0.4241770984413851	0.1199695842421477	-0.2844896601024681	0.02136604233694844	-0.004917541239613887	-0.2545877318385518	0.08227909047650347	0.0462589229248537	0.3407391626296604	-18.18238592358437	-18.44457800171295	4.242950863070217	-8.607457903414982	-711.0329743059282	-75.35215335713998	-8.276871525812998	0.3117290145622115	0.6723772579720003	-0.07583145255206138	-1.785931315645234	0.3186717997185604	-0.5954676520676102	2.015389311959254	-1.740023793391928	-1.740023793391931	-0.2272744327861103	-0.00949523080600285	-0.3600460244362125	0.2993547190164533	-2.402367796931597e-07	-2.039870644624161e-07	1.426723773484775e-06	1.258936374582992e-07	-2.588767748348087e-07	-5.181382222839993e-08	-2.133145556554107e-07
0.53	-0.09858369689562803	-0.04624839901933159	0.7939331266998361	0.9786865079383315	-0.3306612031419538	-0.06117072529140302	-0.8151691762034909	0.9747614915943831	0.9747614915944393	-0.09973127795499614	-0.1743074532705036	0.1623501387904182	0.01680862306895511	-0.1187393247495212	-0.1386319841609894	-0.4196319207423281	1.546619699364152	-0.02074862801560597	0.5489278811352507	-0.7778190197133841	1.729901328136892	1.729901328136881	0.1390511545225817	0.0002606081091255881	0.4203134809385558	0.1226618494423581	-0.2904422046032771	0.02153100657413309	-0.005015755938731886	-0.2583453080463212	0.08127787308264744	0.04620373432603909	0.3467227423626496	-18.76998910967294	-18.25296095298255	4.138425664219576	-8.342211976955046	-715.5684271422904	-75.18693511049158	-7.564567028857551	0.3219599778911136	0.670241274366974	-0.01824143540627202	-1.918481751915196	0.2884468301887034	-0.5924705896736029	2.05786702237591	-1.891629739379294	-1.891629739373094	-0.3023325945941392	-0.01264476266028005	-0.4091984186415402	0.2493591918758589	-2.304166580304678e-07	-2.030034481589972e-07	1.381830918827755e-06	1.205093631209105e-07	-2.46056657064407e-07	-2.646437047593178e-08	-2.08270591376572e-07
